<?xml version="1.0" encoding="iso-8859-1"?>
<!-- Generator: Adobe Illustrator 19.0.0, SVG Export Plug-In . SVG Version: 6.00 Build 0)  -->
<svg xmlns="http://www.w3.org/2000/svg" xmlns:xlink="http://www.w3.org/1999/xlink" version="1.1" id="Layer_1" x="0px" y="0px" viewBox="0 0 502 502" style="enable-background:new 0 0 502 502;" xml:space="preserve" width="512" height="512">
<g>
	<rect x="10" y="20" style="fill:#4D93E8;" width="482" height="238"/>
	<rect x="220" y="258" style="fill:#CCD7EB;" width="62" height="224"/>
	<g>
		<path d="M492,268c5.522,0,10-4.477,10-10V20c0-5.523-4.478-10-10-10H10C4.477,10,0,14.477,0,20v238c0,5.523,4.477,10,10,10h200v15    H10c-5.523,0-10,4.477-10,10s4.477,10,10,10h200v179c0,5.523,4.477,10,10,10h62c5.522,0,10-4.477,10-10V303h200    c5.522,0,10-4.477,10-10s-4.478-10-10-10H292v-15H492z M20,30h462v218H20V30z M272,472h-42V303h42V472z M272,283h-42v-15h42V283z"/>
		<path d="M292,41H42c-5.523,0-10,4.477-10,10s4.477,10,10,10h250c5.522,0,10-4.477,10-10S297.522,41,292,41z"/>
		<path d="M341,41h-14c-5.522,0-10,4.477-10,10s4.478,10,10,10h14c5.522,0,10-4.477,10-10S346.522,41,341,41z"/>
	</g>
</g>















</svg>
