<?xml version="1.0" encoding="iso-8859-1"?>
<!-- Generator: Adobe Illustrator 19.0.0, SVG Export Plug-In . SVG Version: 6.00 Build 0)  -->
<svg version="1.1" id="Layer_1" xmlns="http://www.w3.org/2000/svg" xmlns:xlink="http://www.w3.org/1999/xlink" x="0px" y="0px"
	 viewBox="0 0 512.001 512.001" style="enable-background:new 0 0 512.001 512.001;" xml:space="preserve">
<rect y="287.915" style="fill:#CBBBA0;" width="511.996" height="32"/>
<rect x="208" y="319.921" style="fill:#FAC15C;" width="95.996" height="32"/>
<rect x="8" y="47.919" style="fill:#BE1622;" width="495.998" height="247.999"/>
<g>
	<rect x="75.996" y="96.08" style="fill:#FFFFFF;" width="48" height="15.674"/>
	<rect x="243.997" y="96.08" style="fill:#FFFFFF;" width="48.001" height="15.674"/>
	<rect x="411.998" y="96.08" style="fill:#FFFFFF;" width="48" height="15.674"/>
</g>
<g>
	<path style="fill:#1D1D1B;" d="M511.837,40.082h-68v-32h-63.675v32H275.837v-32h-63.674v32H107.837v-32H44.163v32h-44v263.674
		h511.674V40.082z M395.836,23.756h32.327v16.327h-32.327V23.756z M227.837,23.756h32.326v16.327h-32.326V23.756z M59.837,23.756
		h32.326v16.327H59.837V23.756z M496.163,288.082H15.837V55.756h76.327v16.327h-8.164v15.674h32V72.083h-8.164V55.756h152.326
		v16.327h-8.164v15.674h32V72.083h-8.164V55.756h152.326v16.327h-8.164v15.674h32V72.083h-8.164V55.756h52.326v232.327H496.163z"/>
	<path style="fill:#1D1D1B;" d="M512,312.808H0v15.674h200.163v31.274h111.674v-31.274h200.164v-15.674H512z M296.162,344.082
		h-80.325v-15.601h80.325L296.162,344.082L296.162,344.082z"/>
	<polygon style="fill:#1D1D1B;" points="231.999,383.755 248.163,383.755 248.163,503.919 263.837,503.919 263.837,383.755 
		280.001,383.755 280.001,368.082 231.999,368.082 	"/>
</g>
<g>
	<rect x="39.999" y="184.082" style="fill:#FFFFFF;" width="159.997" height="15.674"/>
	<rect x="39.999" y="216.078" style="fill:#FFFFFF;" width="79.998" height="15.674"/>
	<rect x="39.999" y="248.083" style="fill:#FFFFFF;" width="56" height="15.674"/>
</g>
<g>
</g>
<g>
</g>
<g>
</g>
<g>
</g>
<g>
</g>
<g>
</g>
<g>
</g>
<g>
</g>
<g>
</g>
<g>
</g>
<g>
</g>
<g>
</g>
<g>
</g>
<g>
</g>
<g>
</g>
</svg>
