<?xml version="1.0" encoding="iso-8859-1"?>
<!-- Generator: Adobe Illustrator 19.0.0, SVG Export Plug-In . SVG Version: 6.00 Build 0)  -->
<svg version="1.1" id="Layer_1" xmlns="http://www.w3.org/2000/svg" xmlns:xlink="http://www.w3.org/1999/xlink" x="0px" y="0px"
	 viewBox="0 0 494.849 494.849" style="enable-background:new 0 0 494.849 494.849;" xml:space="preserve">
<g>
	<path style="fill:#FFDA44;" d="M275.297,279.552c-30.207-30.207-49.446-63.252-47.771-81.428
		c1.251-13.579,19.862-30.699,19.862-30.699l38.944,38.944L270.8,221.901l36.624,36.624V0h-160v494.849h160V306.895
		C296.876,299.42,285.912,290.167,275.297,279.552z"/>
	<path style="fill:#FFCD00;" d="M307.424,0v258.524l25.524,25.524l15.532-15.532l38.944,38.944c0,0-17.121,18.61-30.7,19.862
		c-11.788,1.086-29.833-6.633-49.3-20.428v187.954h160V0H307.424z"/>
	<polygon style="fill:#2488FF;" points="47.424,0 47.424,113.712 107.424,113.712 107.424,153.712 47.424,153.712 47.424,227.424 
		107.424,227.424 107.424,267.424 47.424,267.424 47.424,341.136 107.424,341.136 107.424,381.136 47.424,381.136 47.424,494.849 
		147.424,494.849 147.424,0 	"/>
	<polygon style="fill:#005ECE;" points="107.424,227.424 47.424,227.424 27.424,227.424 27.424,267.424 47.424,267.424 
		107.424,267.424 	"/>
	<polygon style="fill:#005ECE;" points="107.424,113.712 47.424,113.712 29.924,113.712 29.924,153.712 47.424,153.712 
		107.424,153.712 	"/>
	<polygon style="fill:#005ECE;" points="107.424,341.136 47.424,341.136 27.424,341.136 27.424,381.136 47.424,381.136 
		107.424,381.136 	"/>
	<path style="fill:#2488FF;" d="M286.332,206.369l-38.944-38.944c0,0-18.611,17.12-19.862,30.699
		c-1.675,18.176,17.565,51.222,47.771,81.428c10.615,10.615,21.579,19.868,32.127,27.343c19.467,13.795,37.512,21.514,49.3,20.428
		c13.579-1.252,30.7-19.862,30.7-19.862l-38.944-38.944l-15.532,15.532l-25.524-25.524L270.8,221.901L286.332,206.369z"/>
</g>
<g>
</g>
<g>
</g>
<g>
</g>
<g>
</g>
<g>
</g>
<g>
</g>
<g>
</g>
<g>
</g>
<g>
</g>
<g>
</g>
<g>
</g>
<g>
</g>
<g>
</g>
<g>
</g>
<g>
</g>
</svg>
